PathFileType	4	(X/Y/Z)	1103211_Cal01.trc	
DataRate	CameraRate	NumFrames	NumMarkers	Units	OrigDataRate	OrigDataStartFrame	OrigNumFrames
300	300	5	77	mm	300	128	337
Frame#	Time	CLAV			STRN			RSHO			LSHO			C7			T10			RBAK			RASI			LASI			RPSI			LPSI			LGTR			RGTR			LHJC			RHJC			LMFC			RMFC			LLTP			RLTP			LMTP			RMTP			LANK			RANK			LMMA			RMMA			LHEE			RHEE			LMT5			RMT5			LTOE			RTOE			RELB			RWRA			RWRB			RFIN			LELB			LWRB			LWRA			LFIN			RFP1			RFP2			RFP3			RFM1			RFM2			RFM3			RFA1			RFA2			RFA3			LFP1			LFP2			LFP3			LFM1			LFM2			LFM3			LFA1			LFA2			LFA3			LKNE			RKNE			RTP1			RTP2			RTP3			RTA1			RTA2			RTA3			LTP1			LTP2			LTP3			LTA1			LFHD			LBHD			RFHD			RBHD			LUPA			LFRA			RUPA			RFRA			
		X1	Y1	Z1	X2	Y2	Z2	X3	Y3	Z3	X4	Y4	Z4	X5	Y5	Z5	X6	Y6	Z6	X7	Y7	Z7	X8	Y8	Z8	X9	Y9	Z9	X10	Y10	Z10	X11	Y11	Z11	X12	Y12	Z12	X13	Y13	Z13	X14	Y14	Z14	X15	Y15	Z15	X16	Y16	Z16	X17	Y17	Z17	X18	Y18	Z18	X19	Y19	Z19	X20	Y20	Z20	X21	Y21	Z21	X22	Y22	Z22	X23	Y23	Z23	X24	Y24	Z24	X25	Y25	Z25	X26	Y26	Z26	X27	Y27	Z27	X28	Y28	Z28	X29	Y29	Z29	X30	Y30	Z30	X31	Y31	Z31	X32	Y32	Z32	X33	Y33	Z33	X34	Y34	Z34	X35	Y35	Z35	X36	Y36	Z36	X37	Y37	Z37	X38	Y38	Z38	X39	Y39	Z39	X40	Y40	Z40	X41	Y41	Z41	X42	Y42	Z42	X43	Y43	Z43	X44	Y44	Z44	X45	Y45	Z45	X46	Y46	Z46	X47	Y47	Z47	X48	Y48	Z48	X49	Y49	Z49	X50	Y50	Z50	X51	Y51	Z51	X52	Y52	Z52	X53	Y53	Z53	X54	Y54	Z54	X55	Y55	Z55	X56	Y56	Z56	X57	Y57	Z57	X58	Y58	Z58	X59	Y59	Z59	X60	Y60	Z60	X61	Y61	Z61	X62	Y62	Z62	X63	Y63	Z63	X64	Y64	Z64	X65	Y65	Z65	X66	Y66	Z66	X67	Y67	Z67	X68	Y68	Z68	X69	Y69	Z69	X70	Y70	Z70	X71	Y71	Z71	X72	Y72	Z72	X73	Y73	Z73	X74	Y74	Z74	X75	Y75	Z75	X76	Y76	Z76	X77	Y77	Z77	

127	0.42000	189.44087	1375.28223	-47.86699	241.74620	1204.47205	-50.92250	88.81657	1424.86304	89.10950	87.29659	1433.33521	-192.30983	49.76196	1429.47693	-46.76103	15.64187	1134.81470	-52.23430	-8.10858	1327.06885	44.53059	180.82527	946.93677	61.52872	176.45915	953.06854	-165.83400	0.22667	955.62750	-0.30904	-1.17106	954.60083	-98.40724	110.35983	868.93988	-216.94426	110.63748	858.11554	119.08063	104.88510	872.67151	-132.69475	104.47493	868.44000	26.23450	64.18849	466.58469	-83.68312	66.36632	471.62256	-15.64079	72.80186	447.69214	-212.70677	78.55382	450.82382	111.30205	62.24194	438.15759	-92.86272	66.49048	441.31851	-6.64149	57.57463	91.04667	-207.01848	55.91066	87.33083	108.50835	73.46251	98.62890	-121.30675	80.65456	92.80820	24.88185	-14.74522	59.92383	-159.31105	-15.90436	62.97877	60.12033	168.53951	30.77048	-243.63914	165.73738	40.86811	157.64584	212.99290	64.89195	-176.05669	214.53807	65.17024	91.02296	62.01848	1297.89417	347.62097	92.15344	1312.72571	592.62866	58.53603	1247.66992	586.96814	55.75516	1301.39392	667.02191	42.75279	1302.24854	-436.28943	36.18638	1264.02307	-685.60303	68.26480	1325.71240	-679.64343	29.50864	1320.55945	-758.87720	108.55737	762.88586	132.30783	106.72583	669.14996	130.92545	100.61380	577.65405	118.37798	170.90135	818.44348	113.22337	177.84236	717.35614	118.03227	174.80629	625.16400	107.69121	215.18510	771.46436	66.51344	209.55708	671.08948	65.15251	191.67628	580.74554	52.15501	108.45950	769.12598	-229.01155	102.71852	659.54333	-223.60475	93.94717	582.85583	-213.37325	166.00360	824.90356	-210.93517	167.22957	718.73669	-217.49083	160.03212	625.63220	-209.00752	217.27000	769.51324	-158.82613	208.26942	665.83380	-147.63387	187.67110	576.31750	-141.99532	78.54146	485.28204	-209.21046	89.19405	478.95367	109.00073	64.69772	374.09000	128.59686	55.42955	268.95023	125.52127	54.65840	182.70755	114.44244	125.11363	393.00876	63.53340	116.62434	315.46786	62.57947	108.40002	232.77948	64.90822	68.81639	360.17810	-228.74376	65.94205	278.99918	-225.56041	62.54453	194.00363	-216.72841	121.54468	400.61627	-155.98647	NaN	NaN	NaN	74.52457	1608.26294	-128.68999	178.75523	1626.10632	38.96605	187.84410	1634.76782	-108.96245	63.15338	1394.07166	-292.78705	25.28731	1307.93726	-584.34241	58.51068	1337.64404	273.70956	45.59846	1294.77344	431.66376	
128	0.42333	189.39708	1375.25928	-47.90880	241.72316	1204.49719	-50.95116	88.81990	1424.86108	89.10628	87.26915	1433.37524	-192.32607	49.74413	1429.46655	-46.79164	15.63801	1134.81372	-52.22908	-8.11433	1327.04956	44.53003	180.78371	946.93866	61.51312	176.44054	953.08435	-165.84602	0.19011	955.60266	-0.34299	-1.19724	954.59174	-98.43861	110.40762	868.92249	-217.02342	110.53149	858.10663	118.92081	104.87450	872.67499	-132.72124	104.44833	868.43317	26.20769	64.14516	466.62317	-83.67998	66.38483	471.62872	-15.64647	72.76584	447.71680	-212.74062	78.53436	450.86978	111.29327	62.18967	438.17114	-92.86775	66.45581	441.35239	-6.62675	57.56123	91.03664	-207.01582	55.90906	87.32541	108.50760	73.42210	98.66684	-121.30006	80.62436	92.83123	24.86003	-14.70574	59.92453	-159.30956	-15.90093	63.00367	60.10208	168.46764	30.76788	-243.64986	165.73755	40.88000	157.65991	212.97386	64.92905	-176.08357	214.52077	65.19412	91.02797	61.96584	1297.85022	347.56494	92.10658	1312.72534	592.64148	58.53702	1247.64771	586.97186	55.74274	1301.36719	667.02399	42.75095	1302.24109	-436.28094	36.18368	1263.99194	-685.60278	68.24605	1325.71143	-679.64771	29.51237	1320.53333	-758.88373	108.54823	762.87506	132.29692	106.70442	669.15393	130.92865	100.61194	577.65619	118.37634	170.89134	818.45654	113.24530	177.79338	717.37140	118.04214	174.79062	625.19476	107.69388	215.19411	771.45343	66.48061	209.56242	671.11188	65.14241	191.68761	580.77655	52.11368	108.45839	769.17761	-229.02153	102.72192	659.54669	-223.62892	93.94545	582.84656	-213.37288	165.95081	824.91675	-210.94026	167.22324	718.77649	-217.50801	160.04202	625.63312	-209.00386	217.25642	769.51172	-158.82756	208.24950	665.85742	-147.63268	187.66789	576.31775	-141.99501	78.53525	485.29819	-209.21220	89.17850	478.98926	109.00778	64.69377	374.12552	128.59061	55.43150	268.95023	125.52046	54.70189	182.68059	114.40909	125.10748	393.03250	63.53682	116.67592	315.54272	62.57433	108.36852	232.79312	64.90475	68.82014	360.22916	-228.74791	65.96780	278.99481	-225.60228	62.54144	194.00218	-216.73000	121.53645	400.66046	-155.98283	NaN	NaN	NaN	74.50050	1608.21948	-128.69664	179.06993	1626.20166	39.01144	187.80840	1634.77271	-109.01845	63.13869	1394.06042	-292.78326	25.28217	1307.92053	-584.35504	58.44354	1337.62598	273.69958	45.58936	1294.71362	431.64008	
129	0.42667	189.41743	1375.29895	-47.90044	241.67162	1204.51123	-50.94743	88.77202	1424.86450	89.09355	87.24107	1433.36340	-192.32790	49.73717	1429.44885	-46.80138	15.60491	1134.81775	-52.21678	-8.11246	1327.02466	44.54077	180.77834	947.03748	61.45805	176.36913	953.09924	-165.89241	0.16306	955.59235	-0.34988	-1.25092	954.59552	-98.43806	110.37549	868.93304	-217.02727	110.53638	858.09375	118.87910	104.83983	872.67755	-132.72322	104.45995	868.49304	26.20735	64.07985	466.65540	-83.70262	66.33188	471.65329	-15.63213	72.76012	447.75293	-212.73448	78.53450	450.87415	111.29062	62.55244	438.03223	-93.13768	66.41760	441.31912	-6.61864	57.55708	91.00533	-207.01515	55.88071	87.29942	108.48798	73.34590	98.70454	-121.30354	80.58722	92.83620	24.86336	-14.73891	59.90977	-159.32399	-15.88913	63.00235	60.14119	168.43259	30.82070	-243.60936	165.69576	40.89396	157.68941	212.97728	64.93134	-176.08177	214.49892	65.22031	91.03255	61.95419	1297.82324	347.56293	92.07492	1312.72534	592.62665	58.53178	1247.60132	586.93066	55.70062	1301.34595	667.04541	42.71191	1302.22107	-436.26526	36.18065	1263.94934	-685.60474	68.24477	1325.70789	-679.64978	29.50313	1320.53027	-758.88629	108.53729	762.89557	132.30362	106.69206	669.15216	130.87628	100.61189	577.65747	118.40506	170.85072	818.45929	113.23790	177.78893	717.38013	118.03816	174.78041	625.18536	107.67014	215.16554	771.50848	66.46303	209.57054	671.16168	65.12851	191.66911	580.81403	52.11098	108.47473	769.19806	-229.02138	102.64053	659.57697	-223.63927	93.89041	582.85596	-213.38960	165.91272	824.93994	-210.97627	167.16409	718.81494	-217.51363	159.67580	625.86444	-208.70610	217.25514	769.57404	-158.82820	208.22795	665.90594	-147.63429	187.61998	576.32324	-142.02608	78.47572	485.32492	-209.19588	89.15460	479.01755	108.99379	64.67946	374.12274	128.60437	55.40225	268.96371	125.52655	54.65480	182.69341	114.41331	125.13921	393.05222	63.51060	116.67661	315.56509	62.58180	108.34875	232.83282	64.91016	68.80463	360.22321	-228.75197	65.90674	279.06256	-225.58388	62.51695	194.04036	-216.73940	121.53719	400.69662	-155.98195	NaN	NaN	NaN	74.53770	1608.29504	-128.61882	178.74434	1626.13074	38.94849	187.78978	1634.81421	-109.02544	62.85471	1394.20569	-292.57166	25.27279	1307.90381	-584.38745	58.44572	1337.60669	273.70618	45.58105	1294.72119	431.65125	
130	0.43000	189.41954	1375.30066	-47.89870	241.67058	1204.50073	-50.96397	88.76242	1424.85413	89.10263	87.23521	1433.36682	-192.33116	49.69014	1429.41931	-46.76796	15.54522	1134.79700	-52.20787	-8.13850	1326.99988	44.49356	180.76921	947.05048	61.45329	176.36076	953.09894	-165.89684	0.15203	955.55151	-0.35652	-1.26027	954.56793	-98.44447	110.35500	868.95703	-217.05049	110.56396	858.13000	119.05293	104.84941	872.66278	-132.72432	104.46898	868.48676	26.20647	64.06946	466.65704	-83.70412	66.28221	471.63058	-15.64891	72.71794	447.75107	-212.74583	78.57295	450.88068	111.32066	62.26659	438.14215	-92.91704	66.41629	441.31436	-6.61855	57.49557	91.05425	-206.99339	55.88177	87.28944	108.49615	73.33321	98.70731	-121.30296	80.54462	92.84977	24.85628	-14.74693	59.90439	-159.28383	-15.89029	63.02957	60.12601	168.42523	30.80804	-243.62315	165.71768	40.90199	157.65359	212.96819	64.94964	-176.08070	214.48576	65.22575	91.03383	61.92039	1297.80725	347.58200	92.06360	1312.71106	592.62842	58.45686	1247.56592	586.96399	55.70271	1301.32898	667.03632	42.70392	1302.18420	-436.26202	36.15861	1263.95996	-685.59296	68.19814	1325.70422	-679.65643	29.49495	1320.49194	-758.88293	108.52165	762.86322	132.30969	106.69211	669.15137	130.87363	100.59923	577.62921	118.40147	170.84511	818.44885	113.23537	177.75499	717.37469	118.00964	174.76402	625.17450	107.68436	215.14485	771.54102	66.46312	209.54707	671.13281	65.16039	191.66103	580.81824	52.13097	108.37245	769.23328	-229.07576	102.63428	659.59296	-223.64476	93.88821	582.88336	-213.39879	165.89664	824.96735	-210.97536	167.34390	718.89325	-217.44997	159.80969	625.76349	-208.92220	217.24922	769.60291	-158.82918	208.11363	665.83484	-147.56255	187.63371	576.35913	-141.99763	78.46988	485.32532	-209.19508	89.14684	479.00320	108.99820	64.66443	374.12881	128.60983	55.39638	268.95706	125.52785	54.69107	182.68492	114.42313	125.13100	393.09430	63.51709	116.66182	315.55490	62.60165	108.34311	232.83705	64.91542	68.77255	360.24561	-228.74794	65.92751	279.01724	-225.62529	62.51515	194.04153	-216.73994	121.49274	400.68344	-156.01472	NaN	NaN	NaN	74.39618	1608.23914	-128.68526	178.57683	1626.10608	38.92987	187.75459	1634.82593	-109.03923	63.06558	1394.10217	-292.79529	25.27400	1307.86877	-584.37848	58.43643	1337.55566	273.73242	45.52643	1294.67761	431.67535	
131	0.43333	189.41341	1375.27991	-47.88847	241.67531	1204.48242	-50.96822	88.73022	1424.82300	89.10994	87.24672	1433.34595	-192.33235	49.68977	1429.39368	-46.75520	15.58421	1134.80725	-52.21150	-8.13737	1326.97473	44.50087	180.71233	947.03180	61.47702	176.33318	953.11664	-165.87584	0.10247	955.52325	-0.35547	-1.29673	954.54370	-98.44600	110.32701	868.97577	-217.05482	110.55530	858.07996	119.05229	104.82883	872.66498	-132.72432	104.42787	868.46307	26.20573	64.11276	466.62033	-83.70671	66.30699	471.68060	-15.66792	72.71187	447.74884	-212.77864	78.56538	450.86972	111.30737	62.17981	438.14694	-92.89607	66.46228	441.28030	-6.63228	57.44283	91.09094	-207.01765	55.88208	87.27968	108.50156	73.37752	98.67105	-121.30843	80.54257	92.85002	24.85602	-14.73373	59.89637	-159.29314	-15.85534	62.98312	60.12787	168.39909	30.82218	-243.64699	165.70779	40.89210	157.68481	212.96089	64.95499	-176.04472	214.48247	65.21724	91.06473	61.95531	1297.78296	347.56677	92.03995	1312.68335	592.61542	58.44383	1247.56555	586.92871	55.68985	1301.30151	667.03076	42.75592	1302.14661	-436.24353	36.15701	1263.92542	-685.59436	68.19640	1325.67139	-679.65894	29.52554	1320.44373	-758.85248	108.50780	762.84497	132.29738	106.64880	669.11658	130.91116	100.59845	577.60291	118.38235	170.84663	818.44696	113.21913	177.75597	717.38879	118.02557	174.69733	625.18988	107.68288	215.13411	771.56848	66.47171	209.54659	671.16595	65.17580	191.65324	580.84906	52.13539	108.37076	769.23492	-229.09752	102.61409	659.61902	-223.64394	93.88664	582.89270	-213.39827	165.88554	824.99231	-210.97670	167.36723	718.90210	-217.44487	160.02396	625.68280	-209.04546	217.29451	769.61481	-158.84328	208.17033	665.95709	-147.62630	187.65245	576.37476	-141.99556	78.49071	485.33636	-209.21321	89.14328	479.00217	109.00198	64.65309	374.10287	128.61844	55.37701	268.94275	125.54097	54.69119	182.69096	114.42622	125.12106	393.06998	63.53178	116.65161	315.52673	62.61629	108.33429	232.83067	64.92960	68.77695	360.25436	-228.74638	65.96631	279.04749	-225.61360	62.53371	194.04614	-216.74303	121.47922	400.71957	-156.01332	NaN	NaN	NaN	74.34088	1608.21777	-128.70064	178.56401	1626.10339	38.92778	187.75679	1634.83765	-109.03508	62.84271	1394.22156	-292.61902	25.27149	1307.81836	-584.38416	58.42830	1337.54163	273.65677	45.52760	1294.60840	431.63007	
